<?xml version="1.0" standalone="no"?>
<!DOCTYPE svg PUBLIC "-//W3C//DTD SVG 20010904//EN"
 "http://www.w3.org/TR/2001/REC-SVG-20010904/DTD/svg10.dtd">
<svg version="1.0" xmlns="http://www.w3.org/2000/svg"
 width="80.000000pt" height="80.000000pt" viewBox="0 0 80.000000 80.000000"
 preserveAspectRatio="xMidYMid meet">
<metadata>
Created by potrace 1.11, written by Peter Selinger 2001-2013
</metadata>
<g transform="translate(0.000000,80.000000) scale(0.100000,-0.100000)"
fill="#000000" stroke="none">
<path d="M434 675 c-22 -23 -33 -25 -107 -25 -119 0 -127 -4 -127 -53 0 -38
-6 -48 -66 -108 -71 -71 -77 -94 -31 -118 20 -11 22 -18 20 -94 -4 -116 0
-127 43 -127 31 0 46 -10 107 -70 39 -38 76 -70 81 -70 5 0 23 12 38 27 27 26
34 27 126 28 l97 0 3 44 c3 39 10 50 73 112 73 71 74 74 35 117 -17 20 -21 38
-23 105 -1 45 -2 92 -2 103 -1 19 -6 21 -43 20 -39 -2 -46 2 -110 66 -38 37
-73 68 -79 68 -5 0 -21 -11 -35 -25z m16 -197 c0 -4 -20 -8 -44 -8 -92 0 -148
-114 -89 -184 10 -11 19 -22 19 -24 1 -2 22 -9 46 -17 38 -11 49 -11 74 1 52
26 76 82 65 156 -1 4 -15 21 -32 38 -18 16 -26 30 -19 30 14 0 59 -49 61 -65
0 -5 3 -19 5 -30 10 -43 1 -95 -17 -95 -5 0 -8 -5 -6 -11 3 -17 -84 -48 -118
-42 -16 3 -44 14 -61 24 -17 10 -34 16 -38 12 -4 -4 -4 0 -1 9 3 8 0 22 -7 29
-8 8 -13 30 -12 50 3 77 61 136 134 136 22 0 40 -4 40 -9z m25 -48 c38 -35 46
-77 24 -122 -25 -49 -71 -66 -123 -44 -28 12 -78 56 -63 56 4 0 2 11 -3 25 -6
15 -6 26 1 30 5 4 7 9 5 13 -7 11 18 40 49 56 38 20 80 14 110 -14z"/>
<path d="M405 398 c-28 -15 -27 -15 -30 -42 -2 -14 4 -31 12 -38 20 -16 50
-20 58 -8 3 6 -3 10 -13 10 -11 0 -25 6 -31 14 -14 16 -4 46 15 46 8 0 14 7
14 15 0 18 1 18 -25 3z"/>
</g>
</svg>
